<?xml version="1.0" encoding="UTF-8"?>
<!DOCTYPE svg PUBLIC "-//W3C//DTD SVG 1.1//EN" "http://www.w3.org/Graphics/SVG/1.1/DTD/svg11.dtd">
<svg xmlns="http://www.w3.org/2000/svg" version="1.1" width="500px" height="500px" style="shape-rendering:geometricPrecision; text-rendering:geometricPrecision; image-rendering:optimizeQuality; fill-rule:evenodd; clip-rule:evenodd" xmlns:xlink="http://www.w3.org/1999/xlink">
<g><path style="opacity:0.993" fill="#bbbbbb" d="M 370.5,166.5 C 373.965,167.397 376.965,169.064 379.5,171.5C 376.662,179.178 374.162,186.845 372,194.5C 377.301,188.198 382.968,182.198 389,176.5C 391.758,177.795 394.258,179.461 396.5,181.5C 389.472,189.362 381.972,196.696 374,203.5C 369.497,201.676 365.664,199.009 362.5,195.5C 365.58,185.93 368.246,176.263 370.5,166.5 Z"/></g>
<g><path style="opacity:0.991" fill="#bababa" d="M 404.5,190.5 C 405.822,190.33 406.989,190.663 408,191.5C 412.122,197.291 416.622,202.791 421.5,208C 419.983,209.685 418.316,211.185 416.5,212.5C 413.195,208.859 409.862,205.192 406.5,201.5C 405.3,202.531 403.966,203.365 402.5,204C 405.382,207.593 408.382,211.093 411.5,214.5C 409.833,215.833 408.167,217.167 406.5,218.5C 403.529,215.192 400.529,211.859 397.5,208.5C 396.019,209.48 394.685,210.647 393.5,212C 396.514,215.678 399.514,219.345 402.5,223C 401.667,225.167 400.167,226.667 398,227.5C 392.74,221.861 387.573,216.027 382.5,210C 390.094,203.718 397.427,197.218 404.5,190.5 Z"/></g>
<g><path style="opacity:0.992" fill="#bcbcbc" d="M 428.5,220.5 C 431.238,226.86 433.905,233.36 436.5,240C 435.528,242.111 434.695,244.278 434,246.5C 430.55,247.928 427.05,249.262 423.5,250.5C 421.813,250.24 420.313,249.573 419,248.5C 416.281,251.922 413.114,254.422 409.5,256C 408.214,253.978 407.214,251.811 406.5,249.5C 409.473,247.194 412.14,244.527 414.5,241.5C 414.047,239.435 413.047,237.768 411.5,236.5C 408.833,237.5 406.167,238.5 403.5,239.5C 401.545,237.139 400.712,234.472 401,231.5C 410.21,227.713 419.376,224.046 428.5,220.5 Z M 423.5,231.5 C 424.496,231.414 425.329,231.748 426,232.5C 430.334,238.847 428.834,241.514 421.5,240.5C 420.786,238.189 419.786,236.022 418.5,234C 420.315,233.243 421.981,232.41 423.5,231.5 Z"/></g>
<g><path style="opacity:0.996" fill="#cecece" d="M 150.5,272.5 C 148.576,272.711 148.243,273.377 149.5,274.5C 155.053,285.605 160.053,296.938 164.5,308.5C 158.5,308.5 152.5,308.5 146.5,308.5C 142.029,297.758 137.363,287.091 132.5,276.5C 129.713,275.523 126.713,275.19 123.5,275.5C 123.5,286.5 123.5,297.5 123.5,308.5C 118.5,308.5 113.5,308.5 108.5,308.5C 108.5,292.5 108.5,276.5 108.5,260.5C 118.839,260.666 129.172,260.5 139.5,260C 146.632,257.951 148.799,253.451 146,246.5C 144.421,244.959 142.587,243.792 140.5,243C 129.839,242.5 119.172,242.333 108.5,242.5C 108.5,237.167 108.5,231.833 108.5,226.5C 121.213,226.126 133.88,226.626 146.5,228C 160.582,232.838 166.082,242.671 163,257.5C 161.525,264.803 157.358,269.803 150.5,272.5 Z"/></g>
<g><path style="opacity:0.998" fill="#cbcbcb" d="M 167.5,259.5 C 168.924,257.485 169.59,255.152 169.5,252.5C 175.646,235.395 187.979,226.729 206.5,226.5C 231.691,228.859 244.691,242.692 245.5,268C 245.294,288.851 235.294,302.184 215.5,308C 188.908,311.796 172.742,300.629 167,274.5C 166.274,269.448 166.441,264.448 167.5,259.5 Z M 197.5,292.5 C 196.71,291.599 195.71,290.932 194.5,290.5C 186.851,285.133 182.851,277.633 182.5,268C 185.681,245.139 198.014,237.806 219.5,246C 230.074,256.584 232.241,268.751 226,282.5C 219.014,292.663 209.514,295.997 197.5,292.5 Z"/></g>
<g><path style="opacity:0.997" fill="#cdcdcd" d="M 249.5,226.5 C 261.886,226.106 274.22,226.606 286.5,228C 303.377,233.601 308.544,244.768 302,261.5C 299.795,264.04 297.295,266.207 294.5,268C 301.74,271.082 305.74,276.582 306.5,284.5C 305.934,295.894 300.268,303.394 289.5,307C 281.236,308.37 272.903,308.87 264.5,308.5C 264.5,303.5 264.5,298.5 264.5,293.5C 272.499,294.218 280.166,293.051 287.5,290C 290.923,281.547 287.923,276.88 278.5,276C 268.506,275.5 258.506,275.334 248.5,275.5C 248.182,259.089 248.516,242.756 249.5,226.5 Z M 280.5,242.5 C 289.265,245.837 290.599,251.004 284.5,258C 282.564,258.813 280.564,259.313 278.5,259.5C 274.167,259.5 269.833,259.5 265.5,259.5C 265.5,253.833 265.5,248.167 265.5,242.5C 270.5,242.5 275.5,242.5 280.5,242.5 Z"/></g>
<g><path style="opacity:0.997" fill="#cacaca" d="M 342.5,226.5 C 365.788,225.38 380.288,236.047 386,258.5C 388.939,293.893 372.772,310.393 337.5,308C 318.078,301.853 308.078,288.52 307.5,268C 308.649,245.036 320.315,231.203 342.5,226.5 Z M 367.5,282.5 C 366.094,282.973 365.427,283.973 365.5,285.5C 356.32,294.297 345.987,295.797 334.5,290C 324.149,279.942 321.649,268.108 327,254.5C 335.571,241.862 346.738,239.029 360.5,246C 370.996,256.506 373.33,268.673 367.5,282.5 Z"/></g>
<g><path style="opacity:0.197" fill="#2f2f2f" d="M 280.5,242.5 C 275.5,242.5 270.5,242.5 265.5,242.5C 265.5,248.167 265.5,253.833 265.5,259.5C 269.833,259.5 274.167,259.5 278.5,259.5C 274.03,260.486 269.363,260.819 264.5,260.5C 264.5,254.167 264.5,247.833 264.5,241.5C 270.026,241.179 275.36,241.512 280.5,242.5 Z"/></g>
<g><path style="opacity:0.627" fill="#6f6f6f" d="M 169.5,252.5 C 169.59,255.152 168.924,257.485 167.5,259.5C 167.41,256.848 168.076,254.515 169.5,252.5 Z"/></g>
<g><path style="opacity:0.993" fill="#bbbbbb" d="M 426.5,258.5 C 431.849,257.461 436.349,258.795 440,262.5C 440.5,269.492 440.666,276.492 440.5,283.5C 438.123,283.784 435.956,283.784 434,283.5C 433.501,278.177 433.334,272.844 433.5,267.5C 432.167,267.5 430.833,267.5 429.5,267.5C 432.851,281.642 427.517,287.476 413.5,285C 412.333,283.833 411.167,282.667 410,281.5C 409.5,274.508 409.334,267.508 409.5,260.5C 411.833,260.5 414.167,260.5 416.5,260.5C 416.334,265.844 416.501,271.177 417,276.5C 418.667,277.833 420.333,277.833 422,276.5C 422.245,272.147 422.245,267.813 422,263.5C 423.707,261.963 425.207,260.296 426.5,258.5 Z"/></g>
<g><path style="opacity:0.993" fill="#bebebe" d="M 204.5,259.5 C 212.839,260.326 215.672,264.659 213,272.5C 208.937,277.199 204.604,277.532 200,273.5C 196.998,267.2 198.498,262.533 204.5,259.5 Z"/></g>
<g><path style="opacity:0.994" fill="#bfbfbf" d="M 345.5,259.5 C 353.868,260.349 356.701,264.683 354,272.5C 350.101,277.09 345.934,277.423 341.5,273.5C 337.987,267.391 339.32,262.724 345.5,259.5 Z"/></g>
<g><path style="opacity:0.18" fill="#303030" d="M 150.5,272.5 C 150.167,273.167 149.833,273.833 149.5,274.5C 148.243,273.377 148.576,272.711 150.5,272.5 Z"/></g>
<g><path style="opacity:0.462" fill="#565656" d="M 132.5,276.5 C 129.833,276.5 127.167,276.5 124.5,276.5C 124.828,287.346 124.494,298.013 123.5,308.5C 123.5,297.5 123.5,286.5 123.5,275.5C 126.713,275.19 129.713,275.523 132.5,276.5 Z"/></g>
<g><path style="opacity:0.498" fill="#5e5e5e" d="M 367.5,282.5 C 367.573,284.027 366.906,285.027 365.5,285.5C 365.427,283.973 366.094,282.973 367.5,282.5 Z"/></g>
<g><path style="opacity:0.855" fill="#5e5e5e" d="M 194.5,290.5 C 195.71,290.932 196.71,291.599 197.5,292.5C 195.821,292.715 194.821,292.048 194.5,290.5 Z"/></g>
</svg>
